<svg width="180" height="180" viewBox="0 0 180 180" fill="none" xmlns="http://www.w3.org/2000/svg">
<circle cx="90" cy="90" r="90" fill="#FF5C00"/>
<circle cx="90" cy="90" r="90" fill="url(#paint0_linear_92_2196)" fill-opacity="0.8"/>
<circle cx="90" cy="90" r="90" fill="url(#paint1_linear_92_2196)" fill-opacity="0.9"/>
<circle cx="90" cy="90" r="90" fill="url(#paint2_linear_92_2196)" fill-opacity="0.9"/>
<circle cx="90" cy="90" r="90" fill="url(#paint3_linear_92_2196)" fill-opacity="0.3"/>
<circle cx="90" cy="90" r="90" fill="url(#paint4_linear_92_2196)" fill-opacity="0.2"/>
<circle cx="90" cy="90" r="90" fill="url(#paint5_linear_92_2196)" fill-opacity="0.1"/>
<circle cx="90" cy="90" r="90" fill="url(#paint6_linear_92_2196)" fill-opacity="0.3"/>
<circle cx="90" cy="90" r="90" fill="url(#paint7_linear_92_2196)" fill-opacity="0.2"/>
<circle cx="90" cy="90" r="90" fill="url(#paint8_linear_92_2196)" fill-opacity="0.1"/>
<path fill-rule="evenodd" clip-rule="evenodd" d="M106.887 45.513C92.4571 46.718 78.0305 46.5556 63.6615 44.6903C54.9902 43.5649 46.381 42.0771 38.0092 37C38.123 37.2593 38.2358 37.518 38.3482 37.7757L38.3482 37.7757C40.1594 41.9275 41.8537 45.8112 45.1958 47.499C51.014 50.4375 51.0776 54.9715 51.1515 60.2439L51.1546 60.4596C51.2186 64.9621 52.3504 69.4313 55.6578 73.5062C53.5826 62.2102 56.308 55.0437 64.6766 51.2194C67.9384 49.7283 71.9391 49.0436 75.5272 49.259C81.5025 49.6173 85.9957 53.2156 89.2663 58.243C97.5216 49.0468 105.34 46.7364 113.76 50.8415C122.166 54.9393 125.169 61.9261 123.471 73.1189C123.634 72.8837 123.804 72.6477 123.975 72.4103L123.975 72.4095C124.757 71.3246 125.56 70.2089 125.772 68.9905C126.634 64.0236 127.303 59.0142 127.782 53.9958C127.951 52.2334 128.152 51.1002 129.974 50.2045C135.257 47.6071 138.099 42.8426 140.799 37.0938C129.884 43.3013 118.406 44.5508 106.887 45.513ZM89.3899 76.6923L83.4461 83.0814L89.423 94.8887C91.6163 90.5036 93.505 86.7282 95.3493 83.0418C93.9023 81.4999 92.5281 80.0358 91.2088 78.6302L89.3899 76.6923ZM95.3387 135.74C94.3077 135.74 93.472 136.576 93.472 137.606V142.105C93.472 143.136 94.3077 143.971 95.3387 143.971C96.3695 143.971 97.2052 143.136 97.2052 142.105V137.606C97.2052 136.576 96.3695 135.74 95.3387 135.74ZM100.404 135.74C99.3736 135.74 98.5379 136.576 98.5379 137.606V142.105C98.5379 143.136 99.3736 143.971 100.404 143.971C101.435 143.971 102.271 143.136 102.271 142.105V137.606C102.271 136.576 101.435 135.74 100.404 135.74ZM78.4038 135.74C77.3729 135.74 76.5374 136.576 76.5374 137.606V142.105C76.5374 143.136 77.3729 143.971 78.4038 143.971C79.4348 143.971 80.2703 143.136 80.2703 142.105V137.606C80.2703 136.576 79.4348 135.74 78.4038 135.74ZM83.4697 135.74C82.4388 135.74 81.6033 136.576 81.6033 137.606V142.105C81.6033 143.136 82.4388 143.971 83.4697 143.971C84.5005 143.971 85.3362 143.136 85.3362 142.105V137.606C85.3362 136.576 84.5005 135.74 83.4697 135.74ZM96.1261 54.0542C108.041 44.4233 126.905 57.2649 121.22 72.7382C120.413 74.9332 120.887 76.1761 122.188 77.8602C137.385 97.5325 131.391 126.215 109.69 137.945C108.965 138.338 108.173 138.624 107.337 138.853V142.105C107.337 143.136 106.501 143.971 105.47 143.971C104.44 143.971 103.604 143.136 103.604 142.105V137.606C103.604 136.576 104.44 135.74 105.47 135.74C106.501 135.74 107.337 136.576 107.337 137.606V138.134C117.269 130.639 122.933 120.691 124.525 108.279C124.525 108.279 124.981 93.4964 117.597 79.0509C112.681 83.2927 107.295 84.8601 101.271 83.2474C95.3218 81.6552 91.6931 77.5101 89.4275 71.2263C87.1085 77.5105 83.4404 81.7425 77.3701 83.2887C71.4426 84.7981 66.1404 83.3421 61.255 78.9305C53.8715 93.7902 54.2796 108.184 54.2796 108.184C54.5987 114.654 56.8953 120.451 60.2102 125.897C62.9848 130.455 67.0185 134.624 71.4715 137.841V137.606C71.4715 136.576 72.3072 135.74 73.338 135.74C74.369 135.74 75.2045 136.576 75.2045 137.606V142.105C75.2045 143.136 74.369 143.971 73.338 143.971C72.3072 143.971 71.4715 143.136 71.4715 142.105V139.099L71.3749 139.063C71.235 139.011 71.0956 138.958 70.9898 138.907C47.9922 127.697 40.9312 98.8342 56.2616 78.3544C57.7955 76.3055 58.2615 74.7602 57.419 72.1392C51.3951 53.3994 78.7074 40.5792 89.2664 62.4419C90.0677 61.4731 90.7383 60.4414 91.4045 59.4164L91.4045 59.4164L91.4046 59.4164C92.6914 57.4367 93.9619 55.4821 96.1261 54.0542ZM59.3398 67.2595C59.301 74.8474 65.4132 81.0374 73.0046 81.0986C80.593 81.1598 86.8655 75.0221 86.921 67.4819C86.9767 59.8891 80.8829 53.7763 73.229 53.7473C65.4899 53.7175 59.3788 59.663 59.3398 67.2595ZM91.8914 67.444C91.9379 74.9679 98.2296 81.1614 105.77 81.1059C113.357 81.05 119.476 74.874 119.453 67.2946C119.43 59.6924 113.35 53.7388 105.618 53.7469C97.9946 53.7551 91.8449 59.8915 91.8914 67.444ZM112.139 67.2628C112.139 70.7115 109.343 73.5073 105.895 73.5073C102.446 73.5073 99.6501 70.7115 99.6501 67.2628C99.6501 63.8141 102.446 61.0184 105.895 61.0184C109.343 61.0184 112.139 63.8141 112.139 67.2628ZM73.2449 73.5073C76.6936 73.5073 79.4893 70.7115 79.4893 67.2628C79.4893 63.8141 76.6936 61.0184 73.2449 61.0184C69.7962 61.0184 67.0004 63.8141 67.0004 67.2628C67.0004 70.7115 69.7962 73.5073 73.2449 73.5073Z" fill="white"/>
<defs>
<linearGradient id="paint0_linear_92_2196" x1="90" y1="0" x2="90" y2="180" gradientUnits="userSpaceOnUse">
<stop stop-color="#FF6C3E"/>
<stop offset="1" stop-color="#FF6C3E" stop-opacity="0"/>
</linearGradient>
<linearGradient id="paint1_linear_92_2196" x1="-42.8155" y1="71.2136" x2="218.447" y2="118.835" gradientUnits="userSpaceOnUse">
<stop stop-color="#E5FF44"/>
<stop offset="1" stop-color="#FF4D00" stop-opacity="0"/>
</linearGradient>
<linearGradient id="paint2_linear_92_2196" x1="170.388" y1="32.3301" x2="133.033" y2="110.271" gradientUnits="userSpaceOnUse">
<stop stop-color="#FF9900"/>
<stop offset="1" stop-color="#FFF09F" stop-opacity="0"/>
</linearGradient>
<linearGradient id="paint3_linear_92_2196" x1="90" y1="0" x2="90" y2="180" gradientUnits="userSpaceOnUse">
<stop stop-color="#FF6C3E"/>
<stop offset="1" stop-color="#FF6C3E" stop-opacity="0"/>
</linearGradient>
<linearGradient id="paint4_linear_92_2196" x1="-42.8155" y1="71.2136" x2="218.447" y2="118.835" gradientUnits="userSpaceOnUse">
<stop stop-color="#E5FF44"/>
<stop offset="1" stop-color="#FF4D00" stop-opacity="0"/>
</linearGradient>
<linearGradient id="paint5_linear_92_2196" x1="170.388" y1="32.3301" x2="130.631" y2="78.6408" gradientUnits="userSpaceOnUse">
<stop stop-color="#FF9900"/>
<stop offset="1" stop-color="#FFF09F" stop-opacity="0"/>
</linearGradient>
<linearGradient id="paint6_linear_92_2196" x1="90" y1="0" x2="90" y2="180" gradientUnits="userSpaceOnUse">
<stop stop-color="#FF6C3E"/>
<stop offset="1" stop-color="#FF6C3E" stop-opacity="0"/>
</linearGradient>
<linearGradient id="paint7_linear_92_2196" x1="-42.8155" y1="71.2136" x2="218.447" y2="118.835" gradientUnits="userSpaceOnUse">
<stop stop-color="#E5FF44"/>
<stop offset="1" stop-color="#FF4D00" stop-opacity="0"/>
</linearGradient>
<linearGradient id="paint8_linear_92_2196" x1="170.388" y1="32.3301" x2="130.631" y2="78.6408" gradientUnits="userSpaceOnUse">
<stop stop-color="#FF9900"/>
<stop offset="1" stop-color="#FFF09F" stop-opacity="0"/>
</linearGradient>
</defs>
</svg>
